<svg width="709" height="429" viewBox="0 0 709 429" fill="none" xmlns="http://www.w3.org/2000/svg">
<path d="M347.944 116.277C347.404 117.407 347.004 118.277 346.574 119.137C343.594 125.037 340.594 130.927 337.604 136.817C337.144 137.727 336.714 138.647 336.224 139.537C335.694 140.497 335.684 141.477 336.024 142.487C336.384 143.547 336.794 144.587 337.094 145.667C338.224 149.807 338.034 153.937 336.774 158.007C334.014 166.867 329.654 174.837 323.504 181.817C320.914 184.757 317.664 186.497 313.914 187.407C312.334 187.787 310.724 188.027 309.134 188.357C308.734 188.437 308.334 188.527 307.964 188.687C307.294 188.997 307.134 189.397 307.534 190.027C308.014 190.797 308.604 191.517 309.144 192.247C310.474 194.047 311.874 195.797 313.134 197.647C314.454 199.597 315.324 201.777 316.014 204.017C316.144 204.457 316.244 204.907 316.434 205.317C317.724 208.107 317.174 210.787 315.884 213.387C315.194 214.777 313.984 215.597 312.584 216.197C310.724 216.987 308.754 217.297 306.764 217.187C304.174 217.037 301.574 216.847 299.034 216.367C297.004 215.987 295.044 215.207 293.094 214.487C291.424 213.867 289.834 213.057 288.194 212.377C287.044 211.907 286.874 211.987 286.224 213.057C285.834 213.707 285.504 214.407 285.084 215.047C284.194 216.397 283.224 217.697 282.354 219.067C281.354 220.657 280.334 222.237 279.484 223.907C277.714 227.377 275.564 230.557 272.844 233.357C272.144 234.077 271.574 234.957 271.104 235.847C268.894 240.027 266.744 244.237 264.564 248.437C264.354 248.837 264.194 249.297 263.914 249.637C261.834 252.127 260.464 255.017 259.174 257.957C256.504 264.057 253.804 270.147 251.094 276.227C250.844 276.777 250.544 277.317 250.194 277.807C246.944 282.297 243.704 286.797 240.414 291.257C239.174 292.927 237.825 294.517 236.505 296.127C235.575 297.267 234.584 298.367 233.674 299.527C232.254 301.357 230.444 302.447 228.124 302.607C226.854 302.697 225.584 302.797 224.314 302.807C218.264 302.837 212.204 302.827 206.154 302.837C205.854 302.837 205.544 302.837 205.244 302.877C204.004 303.017 203.624 303.407 203.684 304.647C203.784 306.527 203.944 308.397 204.094 310.277C204.274 312.657 204.474 315.037 204.644 317.427C204.694 318.077 204.634 318.737 204.634 319.397C204.634 320.157 204.554 320.927 204.654 321.677C205.284 326.827 205.884 331.977 206.614 337.107C207.484 343.257 208.304 349.397 208.364 355.617C208.414 360.407 208.644 361.817 209.714 364.807C210.824 364.177 211.935 363.607 212.975 362.917C215.095 361.517 217.155 360.017 219.285 358.627C220.255 357.987 221.304 357.457 222.344 356.947C223.304 356.477 224.324 356.157 225.294 355.697C233.774 351.617 242.934 349.907 252.044 348.077C255.874 347.307 259.724 346.507 263.654 346.437C268.864 346.347 274.024 346.767 279.014 348.337C280.284 348.737 281.544 349.457 282.574 350.317C284.084 351.587 285.444 353.057 286.744 354.547C291.004 359.447 292.504 365.187 291.754 371.567C291.604 372.827 291.284 374.067 291.144 375.327C290.984 376.687 290.954 378.047 290.854 379.417C290.804 380.027 290.794 380.647 290.644 381.227C289.914 383.927 289.154 386.617 288.364 389.297C287.554 392.047 286.154 394.397 283.864 396.217C282.914 396.967 282.094 397.897 281.284 398.807C277.564 402.987 273.144 406.287 268.354 409.127C266.124 410.447 263.794 411.617 261.674 413.097C257.474 416.037 252.784 417.777 247.864 418.937C243.814 419.897 239.724 420.737 235.614 421.427C233.014 421.857 230.355 421.927 227.725 422.137C223.875 422.457 220.034 422.897 216.174 423.027C212.834 423.147 209.464 423.017 206.124 422.797C204.024 422.657 202.084 421.807 200.324 420.627C197.704 418.867 195.094 417.097 192.514 415.287C190.424 413.817 188.614 412.037 186.954 410.087C186.494 409.547 185.974 409.057 185.454 408.567C184.254 407.437 183.304 406.157 182.584 404.667C182.034 403.527 181.384 402.407 180.604 401.427C178.674 398.977 177.784 396.167 177.524 393.117C177.124 388.297 177.174 383.467 177.414 378.637C177.544 375.997 177.774 373.367 177.894 370.727C177.934 369.767 177.844 368.797 177.714 367.837C177.224 364.337 177.374 360.837 177.444 357.327C177.534 352.497 177.674 347.667 177.784 342.837C177.874 338.517 178.004 334.197 178.034 329.877C178.074 323.777 178.104 317.677 178.014 311.567C177.974 308.677 177.694 305.787 177.444 302.897C177.294 301.207 177.094 300.987 175.434 300.757C173.834 300.537 172.204 300.467 170.584 300.367C167.124 300.157 163.684 300.537 160.234 300.707C158.264 300.807 156.284 300.567 154.304 300.487C152.274 300.407 150.244 300.347 148.204 300.247C146.224 300.157 144.244 300.067 142.274 299.927C141.164 299.847 140.324 300.197 139.624 301.077C136.144 305.467 132.354 309.597 128.164 313.297C123.454 317.447 117.884 320.047 111.734 321.227C109.814 321.597 107.784 321.497 105.814 321.387C103.734 321.267 101.664 320.957 99.6145 320.597C98.5345 320.407 97.4845 319.967 96.4645 319.537C95.5345 319.137 94.6845 318.547 93.7645 318.127C88.9045 315.917 84.9845 312.447 81.3445 308.667C77.8145 304.997 75.1345 300.767 73.4745 295.907C73.1045 294.807 72.6045 293.747 72.0545 292.407C71.6145 293.037 71.2845 293.457 71.0245 293.907C69.9745 295.747 68.5945 297.297 66.8645 298.507C63.6545 300.747 60.4345 302.977 57.2245 305.217C54.0545 307.437 50.5545 308.857 46.7845 309.677C43.3145 310.437 39.8745 311.367 36.4045 312.127C34.6245 312.517 32.7845 312.977 30.9945 312.897C27.8045 312.767 24.6045 312.417 21.4645 311.867C17.1045 311.097 13.3445 308.957 10.0745 306.007C7.73449 303.897 5.49449 301.677 3.26449 299.437C1.27449 297.447 0.344487 294.937 0.124487 292.167C-0.505513 284.467 1.26449 277.327 5.23449 270.717C7.58449 266.807 10.4745 263.317 13.7345 260.167C17.5645 256.447 21.5245 252.867 25.5145 249.317C28.6945 246.487 32.4145 244.447 36.2445 242.647C42.5945 239.667 48.9945 236.797 55.4145 233.987C58.7945 232.507 62.4145 231.887 66.0545 231.427C67.4645 231.247 68.8745 231.057 70.2745 230.817C73.8845 230.177 77.4745 230.667 81.0645 230.947C82.6745 231.077 84.3045 231.347 85.8645 231.757C90.5945 232.977 94.1645 235.777 95.8845 240.367C98.0745 246.217 100.364 252.067 101.564 258.217C102.044 260.697 102.144 263.257 102.334 265.787C102.704 270.607 104.654 274.807 107.244 278.767C107.934 279.817 108.944 280.347 110.194 280.397C111.214 280.437 112.224 280.507 113.244 280.467C114.604 280.407 115.894 280.027 116.784 278.937C118.134 277.277 119.434 275.587 120.664 273.847C120.934 273.457 120.994 272.737 120.844 272.267C120.524 271.207 120.194 270.067 119.534 269.217C115.144 263.557 111.904 257.207 108.554 250.927C107.164 248.317 106.064 245.607 105.084 242.817C104.184 240.237 102.864 237.807 101.714 235.317C99.2645 230.007 96.7245 224.747 94.3945 219.387C93.2445 216.737 92.4645 213.927 91.5445 211.187C90.9645 209.457 90.4845 207.687 89.8645 205.967C88.6745 202.707 88.6345 199.537 90.1645 196.347C90.7945 195.027 91.1745 193.577 91.5945 192.167C92.6545 188.617 94.3845 185.447 96.6145 182.477C99.9645 177.997 103.164 173.407 106.424 168.857C110.954 162.527 115.474 156.187 119.984 149.847C120.394 149.267 120.794 148.667 121.094 148.027C122.714 144.657 124.734 141.547 127.134 138.697C131.254 133.827 134.754 128.527 138.134 123.127C138.854 121.967 139.694 120.867 140.584 119.837C142.894 117.167 144.784 114.217 146.524 111.167C151.684 102.117 156.604 92.9074 162.074 84.0374C169.414 72.1374 176.454 60.0374 184.524 48.5974C186.664 45.5674 188.514 42.3374 190.484 39.1874C194.604 32.5874 198.724 25.9874 202.814 19.3674C204.764 16.2074 206.584 12.9674 208.544 9.82742C211.354 5.33742 215.455 3.04742 220.755 3.00742C223.145 2.98742 225.524 3.19741 227.914 3.22741C231.274 3.26741 234.624 3.20742 237.984 3.24742C240.214 3.27742 242.444 3.40742 244.674 3.49742C246.094 3.55742 247.514 3.67741 248.934 3.72741C251.924 3.81741 254.924 3.88742 257.914 3.91742C261.064 3.94742 264.224 3.83741 267.374 3.94741C271.544 4.08741 275.704 4.36742 279.864 4.59742C280.214 4.61742 280.554 4.77741 280.904 4.79741C282.004 4.86741 283.144 5.09741 284.214 4.90741C287.864 4.27741 291.524 4.59742 295.184 4.60742C299.094 4.61742 303.014 4.77742 306.924 4.89742C308.294 4.93742 309.664 5.04742 311.034 5.18742C312.564 5.34742 313.194 5.92742 313.414 7.45742C313.644 9.05742 314.274 10.4774 315.214 11.7774C316.564 13.6474 317.654 15.6474 318.284 17.8774C318.394 18.2674 318.574 18.6374 318.774 18.9974C321.934 24.5574 324.024 30.5574 326.154 36.5474C326.954 38.7974 327.934 40.9774 328.794 43.2074C329.564 45.1974 330.434 47.1574 331.014 49.2074C332.844 55.6174 335.194 61.8474 337.574 68.0674C339.004 71.8174 340.444 75.5674 341.964 79.2874C342.904 81.5874 344.004 83.8274 345.014 86.1074C345.874 88.0574 346.714 90.0274 347.564 91.9774C347.904 92.7474 348.254 93.5174 348.644 94.3774C349.744 93.7274 350.164 92.7774 350.484 91.8474C351.344 89.3074 352.724 87.0874 354.224 84.8874C355.104 83.6074 355.714 82.1174 356.314 80.6774C356.864 79.3674 357.254 77.9974 357.694 76.6374C359.064 72.4174 360.894 68.4074 362.954 64.4774C364.464 61.6074 365.534 58.5074 367.004 55.6074C370.114 49.4874 373.364 43.4474 376.524 37.3474C377.194 36.0474 377.694 34.6474 378.304 33.3174C378.644 32.5874 378.914 31.7674 379.434 31.1774C383.294 26.7474 385.904 21.5774 388.434 16.3574C389.234 14.7074 389.994 13.0474 390.744 11.3774C391.624 9.41741 393.104 8.23741 395.224 7.86741C396.824 7.58741 398.444 7.34742 400.014 6.96742C402.284 6.42742 404.624 6.00742 406.754 5.10742C410.204 3.64742 413.764 2.70742 417.434 2.10742C420.294 1.63742 423.174 1.31741 426.034 0.907413C427.644 0.677413 429.254 0.427417 430.854 0.137416C432.394 -0.132584 433.904 -0.0125835 435.354 0.567417C436.794 1.13742 438.294 1.29741 439.834 1.33741C442.834 1.42741 445.824 1.58742 448.824 1.70742C449.534 1.73742 450.254 1.79742 450.954 1.70742C455.074 1.15742 459.184 1.59742 463.284 1.89742C465.864 2.08742 468.444 2.53742 471.024 2.57742C472.984 2.61742 474.974 2.29742 476.924 1.95742C479.954 1.43742 482.994 1.32742 486.044 1.46742C488.044 1.55742 489.644 2.42741 490.844 4.04741C492.954 6.91741 495.104 9.75742 497.184 12.6474C498.044 13.8474 499.094 14.5574 500.554 14.7574C502.214 14.9874 503.864 15.2874 505.514 15.5974C510.774 16.6074 515.204 19.2074 518.984 22.9174C520.574 24.4874 522.114 26.1374 523.474 27.8974C524.524 29.2474 525.425 30.7674 526.115 32.3274C528.895 38.6774 530.394 45.3474 530.674 52.2874C530.754 54.1674 530.984 56.0474 530.934 57.9174C530.874 60.3674 530.384 62.7574 529.524 65.0674C529.104 66.1974 529.164 66.2974 530.194 66.8774C531.484 67.5974 532.794 68.2674 534.084 68.9874C536.794 70.5074 538.384 72.7874 538.784 75.8974C538.894 76.8074 539.104 77.6974 539.274 78.5974C539.554 80.0774 540.244 81.3574 541.154 82.5474C542.444 84.2474 543.624 86.0274 544.904 87.7374C546.114 89.3674 547.404 90.9374 548.634 92.5474C549.314 93.4374 549.954 94.3474 550.564 95.2874C558.294 107.147 566.774 118.467 575.584 129.537C578.694 133.447 581.614 137.467 583.934 141.907C584.774 143.517 585.884 144.997 586.954 146.477C589.754 150.347 592.574 154.207 595.434 158.037C597.194 160.397 599.045 162.697 600.865 165.027C601.275 165.547 601.684 166.067 602.074 166.597C604.144 169.427 606.264 172.227 608.264 175.117C610.114 177.787 611.854 180.547 613.594 183.297C614.814 185.227 615.924 187.237 617.134 189.177C618.634 191.597 619.084 194.177 618.424 196.927C617.774 199.647 616.974 202.327 615.584 204.787C615.014 205.787 614.774 206.877 614.844 208.017C615.084 211.827 613.935 215.197 611.865 218.377C609.705 221.687 608.444 225.357 607.504 229.207C606.714 232.447 605.494 235.607 604.264 238.717C602.574 242.977 600.604 247.097 597.804 250.787C597.124 251.687 596.654 252.847 596.404 253.957C595.594 257.517 594.204 260.807 592.454 263.997C590.404 267.737 588.494 271.557 586.474 275.317C585.704 276.747 584.904 278.177 583.964 279.497C582.754 281.217 582.704 282.787 583.914 284.547C586.144 287.817 587.584 291.437 588.464 295.297C589.284 298.917 590.845 302.227 593.115 305.157C595.665 308.447 597.124 312.217 598.094 316.187C598.464 317.717 599.044 319.087 600.134 320.207C601.234 321.327 601.634 322.637 601.234 324.117C600.924 325.257 601.094 326.327 601.404 327.407C602.284 330.487 603.174 333.567 604.034 336.647C604.374 337.867 604.694 339.107 604.924 340.357C605.514 343.677 606.544 346.847 607.844 349.957C609.614 354.177 611.254 358.447 612.944 362.697C613.854 364.977 614.314 365.117 616.414 363.917C619.634 362.067 622.844 360.207 626.124 358.477C630.944 355.927 635.584 353.107 640.094 350.047C641.174 349.317 642.434 348.857 643.594 348.247C644.084 347.987 644.534 347.667 645.004 347.367C646.504 346.417 647.914 345.287 649.504 344.547C654.454 342.257 659.604 340.537 664.914 339.297C666.384 338.947 667.834 339.047 669.294 339.287C669.794 339.367 670.304 339.487 670.804 339.467C674.914 339.287 678.904 340.087 682.904 340.827C684.754 341.167 686.594 341.577 688.444 341.867C693.534 342.667 697.885 344.947 701.615 348.447C702.685 349.457 703.694 350.537 704.704 351.607C707.464 354.517 708.504 357.957 708.174 361.957C707.694 367.617 705.914 372.767 702.794 377.487C701.504 379.437 700.224 381.387 698.954 383.357C696.164 387.667 692.724 391.367 688.744 394.617C687.564 395.577 686.554 396.747 685.384 397.717C683.824 399.017 682.194 400.237 680.574 401.447C679.234 402.447 677.784 403.317 676.484 404.377C672.564 407.577 668.314 410.257 663.854 412.607C663.004 413.057 662.074 413.347 661.184 413.727C658.984 414.647 656.734 415.467 654.594 416.527C650.464 418.577 646.124 419.937 641.654 420.997C641.404 421.057 641.124 421.037 640.914 421.147C637.674 422.777 634.114 423.177 630.634 423.887C628.894 424.247 627.174 424.697 625.444 425.127C622.914 425.747 620.364 426.087 617.744 426.067C613.904 426.037 610.184 426.957 606.414 427.507C604.504 427.787 602.574 427.957 600.654 428.067C597.564 428.247 594.455 428.327 591.365 428.477C588.035 428.637 584.774 428.097 581.504 427.627C577.254 427.017 573.514 425.287 570.194 422.647C568.284 421.137 566.364 419.587 564.694 417.827C561.324 414.277 559.534 409.947 559.124 405.077C558.954 403.007 559.044 400.917 558.844 398.847C558.614 396.577 558.904 394.427 559.464 392.227C559.954 390.317 560.144 388.327 560.284 386.347C560.474 383.597 560.874 380.887 561.574 378.227C563.334 371.567 564.344 364.787 564.924 357.937C565.254 354.037 565.504 350.117 565.394 346.217C565.294 342.677 564.744 339.127 564.234 335.607C563.214 328.617 562.044 321.647 560.994 314.657C560.444 310.957 558.974 307.527 558.074 303.927C557.844 302.987 557.584 302.057 557.304 301.137C556.954 299.977 556.634 299.717 555.494 299.627C553.104 299.447 550.744 299.617 548.374 300.037C545.934 300.467 543.424 300.557 540.944 300.717C539.174 300.827 537.395 300.807 535.615 300.847C534.755 300.867 533.894 300.897 533.024 300.877C530.704 300.807 529.754 301.497 529.244 303.737C527.264 312.457 525.284 321.187 523.344 329.917C522.684 332.867 521.424 335.597 520.234 338.347C518.104 343.267 515.554 347.947 512.264 352.197C511.954 352.597 511.654 353.017 511.414 353.467C509.164 357.767 505.904 361.277 502.434 364.577C498.574 368.247 493.944 370.267 488.534 370.267C488.234 370.267 487.914 370.277 487.624 370.197C485.584 369.647 483.564 369.767 481.464 369.997C476.744 370.537 472.204 369.417 468.034 367.317C462.654 364.617 457.604 361.367 453.694 356.647C450.154 352.377 446.604 348.117 443.094 343.827C441.264 341.587 440.774 341.567 439.664 344.157C438.114 347.787 435.824 350.827 432.934 353.477C428.054 357.957 423.064 362.287 417.484 365.887C412.254 369.267 406.674 371.787 400.444 372.547C397.504 372.907 394.654 373.607 391.764 374.147C388.984 374.667 386.104 374.667 383.274 374.887C374.874 375.547 367.374 373.177 360.794 367.977C357.034 365.007 354.304 361.117 351.904 357.017C350.034 353.827 348.844 350.377 348.364 346.697C347.944 343.467 348.354 340.287 348.994 337.147C349.404 335.127 350.204 333.177 350.834 331.197C351.084 330.427 351.374 329.667 351.574 328.877C352.414 325.547 353.714 322.417 355.444 319.457C357.174 316.517 358.884 313.577 360.584 310.617C362.644 307.037 365.354 304.057 368.604 301.527C376.414 295.457 384.834 290.327 393.174 285.047C400.774 280.237 409.224 277.687 417.814 275.547C422.374 274.407 427.174 274.207 431.774 274.887C438.434 275.867 444.204 278.907 448.494 284.357C449.844 286.067 451.344 287.677 452.924 289.177C455.044 291.187 456.714 293.397 457.384 296.307C457.554 297.037 457.904 297.737 458.254 298.417C461.444 304.607 464.644 310.797 467.874 316.967C468.654 318.447 469.534 319.887 470.444 321.297C470.874 321.977 471.404 322.637 472.024 323.137C474.584 325.197 477.624 326.027 480.834 325.967C483.234 325.927 484.984 324.457 486.374 322.587C489.634 318.187 492.214 313.407 494.104 308.277C494.614 306.897 495.074 305.497 495.504 304.087C495.904 302.747 495.644 302.287 494.244 302.127C491.364 301.797 488.474 301.557 485.594 301.317C483.314 301.127 481.034 300.987 478.744 300.857C477.544 300.787 476.474 300.437 475.484 299.727C474.404 298.967 473.274 298.277 472.134 297.617C470.434 296.637 468.974 295.407 467.714 293.917C464.684 290.347 461.624 286.807 458.624 283.217C457.654 282.047 456.784 280.787 455.954 279.517C450.684 271.537 445.454 263.527 440.174 255.557C439.474 254.507 438.624 253.527 437.744 252.627C436.314 251.157 435.144 249.517 434.164 247.717C431.634 243.077 429.014 238.477 426.464 233.847C423.974 229.327 420.914 225.207 417.804 221.117C416.884 219.907 415.914 218.697 415.224 217.357C413.704 214.387 411.754 211.737 409.654 209.177C405.944 204.657 402.104 200.237 398.494 195.637C396.454 193.047 394.714 190.217 392.914 187.447C391.784 185.697 390.734 183.917 389.354 182.327C388.394 181.217 387.604 179.957 386.814 178.707C380.494 168.677 374.184 158.647 367.904 148.597C366.854 146.917 365.974 145.137 365.054 143.377C361.384 136.327 357.104 129.647 352.614 123.097C351.404 121.337 350.254 119.537 349.074 117.757C348.794 117.337 348.494 116.947 348.014 116.267L347.944 116.277ZM482.694 288.677C483.184 288.717 483.474 288.747 483.764 288.757C487.374 288.877 490.984 288.987 494.584 289.117C495.854 289.167 497.124 289.297 498.384 289.357C500.754 289.487 500.874 289.337 501.644 287.127C502.664 284.197 503.654 281.257 504.874 278.407C505.914 275.997 506.715 273.587 506.865 270.947C506.995 268.767 507.974 266.827 509.134 265.017C509.994 263.667 511.904 263.607 512.924 264.857C513.644 265.727 514.164 266.717 514.204 267.897C514.244 269.167 514.334 270.437 514.354 271.707C514.424 275.557 513.714 279.307 512.794 283.007C511.734 287.297 510.434 291.527 509.374 295.827C508.374 299.897 507.104 303.847 505.054 307.517C504.394 308.697 503.494 309.757 502.694 310.867C502.104 311.687 501.364 312.427 500.914 313.307C499.374 316.347 497.964 319.447 496.424 322.487C495.694 323.927 494.794 325.287 493.914 326.657C493.424 327.427 492.784 328.097 492.284 328.857C489.294 333.417 484.994 335.277 479.664 335.087C476.004 334.947 472.554 333.877 469.174 332.617C467.984 332.167 466.804 331.337 465.964 330.377C464.054 328.207 462.314 325.877 460.584 323.557C460.074 322.877 459.794 322.027 459.414 321.257C458.714 319.847 458.114 318.377 457.314 317.037C453.694 310.957 450.554 304.637 447.584 298.217C447.244 297.487 446.874 296.717 446.314 296.157C443.514 293.357 440.694 290.557 437.774 287.877C435.724 286.007 433.214 284.987 430.424 284.887C427.884 284.807 425.344 284.887 422.794 284.937C420.314 284.977 418.024 285.777 415.704 286.577C412.054 287.837 408.314 288.827 404.644 290.027C402.964 290.577 401.244 291.157 399.734 292.037C397.104 293.567 394.674 295.397 391.974 296.857C388.854 298.547 385.934 300.617 382.964 302.587C381.014 303.877 379.084 305.217 377.244 306.647C374.874 308.497 372.634 310.537 371.074 313.147C367.494 319.127 363.914 325.107 360.474 331.157C358.474 334.687 357.324 338.547 357.084 342.617C356.914 345.517 357.404 348.317 358.844 350.857C361.254 355.117 364.374 358.767 368.424 361.577C371.014 363.377 373.824 364.567 376.984 364.937C380.964 365.397 384.904 365.047 388.824 364.367C393.044 363.637 397.114 362.327 401.154 360.957C402.834 360.387 404.474 359.697 406.074 358.927C408.314 357.847 410.514 356.677 412.694 355.457C413.474 355.017 414.104 354.337 414.814 353.767C415.444 353.267 416.024 352.667 416.714 352.287C418.464 351.307 420.074 350.197 421.454 348.727C422.224 347.907 422.994 347.097 423.794 346.317C429.394 340.867 434.264 334.817 438.544 328.277C438.934 327.687 439.374 327.107 439.914 326.657C442.344 324.627 445.334 325.537 446.274 328.537C446.364 328.827 446.424 329.127 446.514 329.417C447.104 331.517 447.684 333.627 448.304 335.727C448.474 336.307 448.674 336.927 449.034 337.387C451.014 339.897 452.944 342.467 455.654 344.297C456.704 345.007 457.754 345.777 458.614 346.687C461.474 349.717 464.834 352.047 468.314 354.287C472.034 356.687 476.074 357.717 480.444 357.767C482.324 357.787 484.234 357.717 486.064 358.047C488.774 358.527 491.054 358.017 493.144 356.207C495.994 353.757 498.884 351.337 502.124 349.377C502.594 349.097 503.014 348.677 503.334 348.237C505.824 344.817 508.144 341.307 509.784 337.377C511.704 332.777 513.704 328.217 515.594 323.607C516.154 322.257 516.504 320.807 516.914 319.397C517.294 318.077 517.624 316.747 517.984 315.427C518.654 312.977 519.544 310.567 519.984 308.077C521.304 300.467 522.464 292.827 523.674 285.197C524.184 281.987 524.514 278.727 525.274 275.577C526.124 272.067 526.964 268.567 527.324 264.967C527.544 262.737 528.654 260.817 529.884 258.997C530.464 258.147 531.104 258.077 532.004 258.577C533.114 259.207 533.674 260.367 533.334 261.697C532.624 264.497 532.704 267.337 532.654 270.187C532.624 271.957 532.534 273.737 532.274 275.487C531.744 279.067 531.294 282.637 531.354 286.267C531.384 287.887 531.694 288.157 533.234 288.067C537.144 287.837 541.054 287.697 544.954 287.377C547.324 287.177 549.684 286.777 552.024 286.337C553.694 286.017 553.944 285.587 553.634 283.867C553.414 282.627 553.044 281.397 552.664 280.187C551.834 277.517 550.884 274.887 550.104 272.207C549.114 268.787 548.304 265.327 548.004 261.757C547.914 260.737 548.064 259.837 548.814 259.097C549.534 258.387 550.224 258.247 550.964 258.907C551.554 259.427 552.094 260.107 552.384 260.827C555.014 267.437 557.684 274.037 560.124 280.727C561.834 285.397 563.364 290.157 564.654 294.957C565.914 299.637 567.404 304.207 569.494 308.577C571.944 313.727 573.334 319.177 573.774 324.857C574.084 328.857 574.414 332.867 574.674 336.877C574.914 340.527 575.104 344.187 575.244 347.837C575.334 350.277 575.244 352.727 575.324 355.167C575.474 359.527 575.824 363.877 574.954 368.237C574.504 370.517 574.744 372.937 574.264 375.207C572.934 381.567 572.124 388.057 570.034 394.247C569.584 395.577 569.504 396.967 569.834 398.307C570.144 399.577 570.094 400.787 569.914 402.067C569.494 405.067 570.564 407.717 572.444 409.937C573.744 411.477 575.404 412.727 576.934 414.057C580.084 416.787 583.804 417.917 587.934 417.777C591.494 417.647 595.044 417.497 598.594 417.337C600.934 417.227 603.314 417.337 605.584 416.917C610.054 416.077 614.544 415.757 619.064 415.477C620.724 415.377 622.414 415.137 624.024 414.737C628.604 413.587 633.174 412.357 637.724 411.097C641.204 410.137 644.604 408.927 647.894 407.427C650.434 406.267 653.015 405.187 655.615 404.167C658.575 403.017 661.364 401.597 663.894 399.667C670.144 394.867 676.404 390.067 682.654 385.257C683.134 384.887 683.604 384.477 683.984 384.017C688.094 378.897 691.994 373.617 695.104 367.807C695.844 366.437 696.424 364.927 696.774 363.417C697.714 359.387 697.424 360.027 695.284 357.607C693.024 355.057 690.554 352.817 687.154 351.927C685.344 351.457 683.494 351.067 681.644 350.797C679.084 350.417 676.514 350.327 674.014 349.447C672.684 348.977 671.084 348.927 669.654 349.107C664.674 349.727 659.894 351.097 655.434 353.447C653.194 354.637 651.015 355.957 648.865 357.307C641.195 362.117 633.514 366.897 625.544 371.207C622.924 372.627 620.384 374.317 618.094 376.227C615.344 378.517 612.384 380.477 609.464 382.497C607.284 383.997 604.684 383.807 602.724 382.037C600.734 380.247 599.854 378.007 600.204 375.337C600.314 374.477 600.464 373.627 600.594 372.777C600.954 370.477 600.584 368.207 600.264 365.947C599.494 360.517 598.984 355.037 597.344 349.757C597.154 349.127 596.994 348.477 596.894 347.827C596.364 344.417 595.825 340.997 595.365 337.577C594.975 334.697 594.424 331.877 593.304 329.167C592.614 327.487 592.004 325.717 591.734 323.937C590.844 318.097 588.814 312.747 585.504 307.867C584.934 307.027 584.374 306.167 583.934 305.247C582.864 303.007 581.884 300.717 580.844 298.457C580.194 297.027 579.564 295.587 578.824 294.207C577.884 292.457 576.825 290.787 575.865 289.047C573.825 285.357 572.124 281.477 569.674 278.017C569.444 277.687 569.234 277.307 569.144 276.927C568.294 273.187 566.364 269.967 564.344 266.777C562.984 264.627 561.684 262.437 560.484 260.197C559.364 258.117 560.564 256.307 562.944 256.287C564.344 256.277 565.324 256.937 566.134 258.047C568.684 261.537 571.264 265.017 573.854 268.467C574.584 269.437 575.404 270.327 576.294 271.407C576.934 270.387 577.514 269.557 577.984 268.677C579.624 265.627 581.224 262.567 582.834 259.507C584.164 256.977 585.294 254.377 585.834 251.547C586.384 248.647 587.704 246.107 589.384 243.687C590.454 242.157 591.364 240.477 592.064 238.757C593.564 235.087 594.884 231.347 596.284 227.637C598.424 221.977 600.544 216.307 603.844 211.167C604.834 209.627 605.004 207.827 605.084 206.037C605.094 205.767 604.924 205.487 604.814 205.127C604.114 205.407 603.524 205.707 602.894 205.867C601.574 206.197 600.234 206.657 598.894 206.687C596.574 206.737 594.354 207.117 592.144 207.747C590.974 208.077 589.784 208.407 588.574 208.507C583.664 208.947 578.744 209.307 573.824 209.667C572.814 209.737 571.764 209.837 570.784 209.647C568.984 209.297 567.254 209.447 565.504 209.857C562.454 210.567 559.374 210.757 556.284 210.107C555.594 209.967 554.874 209.917 554.164 209.927C551.524 209.947 548.884 209.977 546.244 210.047C544.514 210.087 542.794 210.267 541.064 210.247C539.144 210.227 537.214 210.067 535.294 209.957C533.624 209.857 531.964 209.727 530.294 209.657C528.724 209.587 527.144 209.677 525.574 209.527C523.354 209.317 521.214 209.407 519.154 210.357C518.604 210.607 518.004 210.797 517.414 210.887C515.944 211.107 514.994 211.957 514.494 213.267C513.464 215.977 512.464 218.697 511.534 221.437C510.734 223.787 510.094 226.197 509.314 228.557C508.644 230.587 507.884 232.577 507.164 234.587C505.034 240.517 503.054 246.507 500.744 252.367C498.324 258.517 495.524 264.517 491.554 269.887C490.804 270.897 490.244 272.067 489.724 273.217C488.684 275.527 487.774 277.907 486.724 280.217C485.694 282.477 484.554 284.697 483.464 286.927C483.204 287.457 482.964 287.997 482.654 288.677H482.694ZM137.264 287.217C137.794 286.527 138.314 285.977 138.674 285.337C140.694 281.747 142.814 278.207 144.634 274.517C147.084 269.547 150.064 264.977 153.734 260.847C154.034 260.507 154.324 260.147 154.604 259.787C157.294 256.347 160.434 253.247 162.544 249.357C162.684 249.097 162.934 248.887 163.144 248.667C164.864 246.837 166.194 244.737 167.364 242.527C168.294 240.777 169.194 239.007 170.234 237.317C171.754 234.847 173.364 232.447 174.964 230.027C175.634 229.017 176.504 228.107 177.054 227.037C178.564 224.117 180.524 221.537 182.614 219.037C187.714 212.947 192.604 206.697 196.864 199.987C199.254 196.217 201.254 192.187 203.624 188.397C207.294 182.537 211.164 176.797 214.884 170.967C219.974 162.997 225.144 155.077 229.334 146.567C229.554 146.117 229.824 145.677 230.104 145.257C232.984 140.877 235.894 136.527 238.744 132.127C241.344 128.117 244.034 124.147 246.384 119.997C248.484 116.277 250.404 112.457 253.204 109.187C253.864 108.417 253.954 107.597 253.664 106.637C252.724 103.567 251.644 100.557 250.104 97.7274C248.734 95.2174 247.564 92.5874 247.164 89.7474C246.654 86.1474 245.324 82.8974 243.644 79.7374C241.494 75.6974 239.344 71.6574 237.744 67.3474C237.214 65.9174 236.624 64.5074 235.994 63.1174C231.234 52.6574 226.474 42.1974 221.684 31.7574C219.714 27.4574 217.674 23.1974 215.654 18.9274C215.434 18.4574 215.084 18.0474 214.664 17.4274C214.244 18.0874 213.944 18.4874 213.704 18.9274C210.924 24.0274 207.634 28.7974 204.214 33.4874C202.694 35.5774 201.264 37.7674 200.054 40.0474C197.874 44.1274 195.914 48.3174 193.804 52.4274C191.114 57.6774 188.464 62.9574 184.764 67.6074C184.484 67.9674 184.274 68.3774 184.044 68.7774C182.394 71.6474 180.824 74.5574 179.094 77.3674C177.874 79.3474 176.414 81.1974 175.094 83.1174C174.264 84.3274 173.444 85.5474 172.664 86.7974C171.354 88.9174 170.174 91.1174 168.784 93.1774C166.144 97.0974 163.314 100.897 160.704 104.837C155.594 112.557 150.634 120.367 145.504 128.077C141.614 133.917 137.564 139.657 133.584 145.437C133.234 145.937 132.884 146.447 132.464 146.887C130.754 148.667 129.444 150.707 128.304 152.877C127.744 153.957 127.184 155.057 126.514 156.067C125.864 157.027 125.094 157.907 124.324 158.777C123.424 159.807 122.364 160.707 121.554 161.797C119.464 164.617 117.494 167.527 115.414 170.357C113.824 172.527 112.144 174.637 110.504 176.777C110.254 177.097 109.964 177.417 109.834 177.787C108.684 180.977 106.614 183.527 104.374 185.987C102.574 187.967 101.244 190.237 100.434 192.807C99.7345 195.037 99.0145 197.267 98.3145 199.497C97.9045 200.797 97.8745 202.137 98.3145 203.397C99.6145 207.037 100.884 210.687 102.364 214.247C103.834 217.767 105.544 221.177 107.174 224.627C109.894 230.367 112.714 236.067 115.334 241.847C118.624 249.127 121.854 256.427 126.154 263.187C127.754 265.707 128.964 268.377 129.704 271.247C130.704 275.107 132.274 278.747 133.874 282.367C134.654 284.137 135.874 285.637 137.254 287.247L137.264 287.217ZM475.734 284.767C476.784 283.227 477.214 281.737 477.504 280.177C477.804 278.577 478.134 276.987 478.604 275.437C479.344 272.957 480.194 270.507 481.014 268.047C481.564 266.377 482.434 264.917 483.704 263.677C484.314 263.087 484.824 262.357 485.254 261.627C488.194 256.557 490.684 251.287 492.654 245.757C494.904 239.437 497.734 233.347 499.694 226.907C502.924 216.277 501.404 218.777 507.724 207.737C508.544 206.307 508.564 204.997 507.624 203.607C506.284 201.627 505.014 199.607 503.754 197.577C502.474 195.497 501.284 193.367 499.994 191.297C496.244 185.307 492.344 179.407 488.724 173.337C484.654 166.517 480.294 159.897 475.834 153.337C474.094 150.777 472.464 148.137 470.774 145.537C468.674 142.297 466.664 138.997 464.444 135.837C461.644 131.837 458.664 127.967 455.784 124.027C451.964 118.817 448.144 113.617 444.374 108.367C442.244 105.397 440.114 102.407 438.194 99.2974C436.614 96.7474 435.234 94.0874 433.234 91.8174C432.534 91.0274 432.024 90.0574 431.434 89.1674C427.504 83.2974 423.564 77.4274 419.634 71.5574C417.934 69.0274 416.144 66.5474 414.554 63.9474C409.134 55.0474 403.994 45.9774 399.294 36.6674C397.714 33.5374 395.994 30.4774 394.274 27.4174C393.514 26.0674 392.454 24.9074 391.394 23.6574C387.794 29.5974 384.804 35.5974 382.644 41.9774C381.074 46.6074 379.384 51.1674 377.304 55.5974C376.384 57.5674 375.694 59.6574 375.034 61.7374C373.624 66.1074 371.974 70.3574 369.514 74.2574C368.414 75.9974 367.764 77.9174 367.384 79.9374C366.824 82.9174 365.824 85.7274 364.174 88.2774C362.794 90.4074 361.424 92.5574 360.004 94.6674C358.324 97.1574 356.714 99.6874 355.634 102.507C355.504 102.837 355.364 103.187 355.124 103.437C353.824 104.767 353.334 106.467 352.734 108.147C352.264 109.447 352.484 110.487 353.324 111.547C355.094 113.777 356.764 116.087 358.564 118.297C364.654 125.757 369.584 134.047 375.264 141.797C375.444 142.047 375.584 142.317 375.754 142.567C381.554 150.977 386.554 159.917 392.654 168.137C392.804 168.337 392.934 168.567 393.074 168.767C394.894 171.277 396.744 173.767 398.514 176.307C399.414 177.597 400.204 178.957 400.994 180.317C401.804 181.727 402.444 183.247 403.344 184.587C407.564 190.817 411.774 197.057 416.134 203.187C419.554 207.997 422.974 212.827 426.774 217.327C433.094 224.827 438.534 232.897 443.474 241.337C444.854 243.697 446.514 245.897 448.074 248.157C449.494 250.207 450.954 252.227 452.394 254.257C453.484 255.787 454.544 257.337 455.644 258.857C456.684 260.297 457.804 261.677 458.824 263.137C459.784 264.507 460.614 265.977 461.554 267.357C463.124 269.667 464.814 271.907 466.304 274.267C468.834 278.277 472.384 281.327 475.764 284.777L475.734 284.767ZM394.584 17.3874C395.454 18.1974 396.234 18.9874 397.084 19.6774C398.984 21.2274 400.794 22.8774 402.174 24.9174C405.594 29.9674 408.984 35.0474 412.324 40.1574C414.834 43.9774 417.254 47.8674 419.734 51.7074C420.694 53.2074 421.684 54.6874 422.694 56.1574C428.834 65.0774 434.954 74.0274 441.154 82.9074C444.044 87.0374 447.004 91.1074 449.404 95.5474C449.884 96.4374 450.434 97.3074 451.034 98.1274C453.824 101.887 456.354 105.807 458.894 109.747C467.084 122.497 475.404 135.167 483.714 147.847C488.784 155.587 493.324 163.677 498.894 171.087C499.404 171.767 499.754 172.587 500.174 173.337C500.394 173.737 500.585 174.157 500.865 174.517C506.115 181.537 510.684 188.987 515.294 196.427C516.314 198.067 517.454 199.637 518.644 201.147C519.734 202.537 520.224 202.567 521.754 201.647C522.764 201.047 523.754 200.457 524.964 200.327C531.044 199.677 537.144 199.687 543.244 199.747C546.504 199.777 549.744 199.937 552.894 198.797C553.684 198.517 554.634 198.377 555.444 198.527C557.584 198.927 559.704 198.697 561.824 198.567C567.154 198.257 572.484 197.987 577.804 197.637C580.134 197.487 582.474 197.307 584.774 196.917C587.774 196.407 590.734 195.637 593.724 195.037C597.814 194.217 601.914 193.467 605.994 192.657C607.534 192.347 607.784 191.887 607.164 190.427C606.684 189.307 606.164 188.187 605.494 187.187C602.714 183.057 599.904 178.927 597.024 174.867C593.404 169.767 589.584 164.797 586.424 159.387C584.234 155.647 581.754 152.117 578.944 148.807C578.294 148.047 577.864 147.097 577.344 146.227C576.724 145.177 576.214 144.047 575.494 143.077C571.874 138.217 568.204 133.407 564.554 128.577C564.214 128.127 563.834 127.717 563.494 127.277C562.594 126.117 561.564 125.027 560.844 123.757C558.844 120.207 556.715 116.747 554.115 113.597C553.795 113.207 553.504 112.777 553.224 112.357C548.744 105.497 544.274 98.6474 539.784 91.7874C539.404 91.1974 538.944 90.6574 538.444 89.9874C537.914 90.4874 537.444 90.8774 537.044 91.3174C535.234 93.2874 533.004 94.5274 530.434 95.2074C525.284 96.5774 520.254 96.0674 515.314 94.2274C514.794 94.0374 514.295 93.7374 513.865 93.3974C512.405 92.2474 512.514 90.6974 514.214 89.9074C515.154 89.4674 516.244 89.2174 517.284 89.1174C519.654 88.9074 522.024 88.3774 524.404 89.0274C524.544 89.0674 524.715 89.0474 524.865 89.0174C526.845 88.5774 528.834 88.1574 530.814 87.6874C531.784 87.4574 532.454 86.7974 532.584 85.7974C532.924 83.2374 533.424 80.6874 532.904 78.0674C532.144 74.2274 529.975 72.3674 526.115 72.5774C522.405 72.7774 518.714 73.1074 515.014 73.3874C513.244 73.5174 511.464 73.7174 509.714 73.2174C508.234 72.7874 507.934 72.4874 507.974 70.9974C508.024 69.0774 507.054 67.7674 505.664 66.5774C504.864 67.0874 504.834 67.8574 504.724 68.6074C504.344 71.2174 504.114 73.8674 503.504 76.4274C502.604 80.1774 500.374 83.0174 496.794 84.6274C494.034 85.8674 491.104 86.5274 488.074 86.6374C482.774 86.8374 478.214 84.9774 474.234 81.5674C468.464 76.6274 464.404 70.4974 461.714 63.4274C460.024 58.9974 459.014 54.3774 458.014 49.7574C457.184 45.9574 456.724 42.1474 456.984 38.2574C457.184 35.2674 457.224 32.2474 458.754 29.5174C459.474 28.2274 460.134 26.9074 460.884 25.6374C462.344 23.1674 464.525 21.7574 467.365 21.2774C470.895 20.6874 474.244 21.2774 477.494 22.6374C480.004 23.6874 482.184 25.2574 484.304 26.9474C485.364 27.7974 485.904 27.6374 486.294 26.3474C487.204 23.3074 488.874 20.7274 490.934 18.3574C491.494 17.7174 491.994 17.0174 492.484 16.3774C492.344 16.1274 492.294 15.9774 492.204 15.8574C490.484 13.7274 488.764 11.5874 487.034 9.46742C486.494 8.79742 485.964 8.09742 485.344 7.50742C484.234 6.44742 482.894 6.06742 481.404 6.50742C480.334 6.82742 479.274 7.19741 478.244 7.62741C475.904 8.59742 473.504 9.06742 470.964 8.95742C469.494 8.88742 468.014 8.99742 466.544 9.00742C463.394 9.04742 460.244 9.07742 457.094 9.10742C456.234 9.10742 455.344 8.98742 454.514 9.13742C450.304 9.93742 446.074 10.4474 441.794 10.4374C438.754 10.4374 435.704 10.9174 432.654 10.3874C431.974 10.2674 431.234 10.3874 430.524 10.4574C428.044 10.7174 425.574 11.0274 423.094 11.2574C418.994 11.6374 414.854 11.7374 410.854 12.7874C406.814 13.8374 402.754 14.7174 398.604 15.2174C397.114 15.3974 395.884 16.2374 394.604 17.3574L394.584 17.3874ZM341.484 114.337C340.514 114.157 339.864 114.027 339.214 113.917C336.754 113.497 334.304 113.247 331.794 113.727C330.314 114.017 328.754 114.007 327.234 113.947C324.054 113.817 320.884 113.117 317.674 113.777C317.384 113.837 317.064 113.797 316.764 113.777C314.484 113.697 312.194 113.577 309.914 113.547C308.644 113.527 307.384 113.637 306.114 113.737C302.194 114.027 298.274 114.087 294.474 112.907C292.474 112.287 290.494 112.277 288.454 112.657C287.324 112.867 286.134 112.877 284.974 112.857C282.694 112.827 280.404 112.667 278.124 112.667C272.784 112.667 267.444 112.727 262.154 111.777C260.514 111.477 259.274 112.027 258.384 113.447C257.024 115.617 256.024 117.927 255.234 120.367C254.594 122.337 253.764 124.257 252.894 126.137C252.234 127.567 251.344 128.877 250.634 130.287C247.364 136.687 243.654 142.817 239.214 148.487C238.434 149.487 237.714 150.547 237.094 151.647C234.224 156.737 231.354 161.837 228.564 166.977C225.984 171.717 223.314 176.387 219.944 180.637C218.304 182.707 216.694 184.827 215.314 187.077C210.584 194.797 205.944 202.567 201.284 210.337C198.134 215.597 194.574 220.517 190.264 224.907C189.184 226.017 188.354 227.397 187.524 228.737C186.274 230.767 185.284 232.977 183.894 234.907C180.714 239.337 177.764 243.897 174.864 248.507C170.414 255.587 165.114 262.047 159.874 268.527C157.054 272.017 154.344 275.517 152.294 279.547C150.664 282.757 148.624 285.757 146.774 288.867C146.464 289.387 146.194 289.937 145.984 290.507C145.734 291.157 146.034 291.637 146.694 291.747C147.394 291.867 148.104 291.917 148.814 291.917C151.504 291.937 154.204 291.857 156.864 292.457C157.534 292.607 158.284 292.487 158.974 292.367C161.574 291.947 164.164 291.347 166.784 291.077C169.654 290.787 172.544 290.657 175.444 291.217C179.444 291.997 183.504 292.237 187.584 292.187C188.904 292.167 190.214 292.367 191.534 292.497C193.754 292.707 195.974 292.987 198.204 293.167C202.104 293.487 206.004 293.787 209.914 294.047C211.884 294.177 213.874 294.127 215.834 294.317C218.914 294.617 221.994 295.007 225.064 295.457C226.624 295.677 227.764 295.357 228.744 293.997C230.644 291.357 232.744 288.857 234.684 286.247C235.654 284.947 236.564 283.577 237.294 282.137C242.164 272.567 247.204 263.097 253.274 254.227C257.094 248.647 260.714 242.947 264.154 237.117C268.454 229.797 273.034 222.637 277.484 215.397C278.124 214.357 278.674 213.267 279.224 212.177C279.404 211.817 279.424 211.387 279.514 210.977C279.414 210.917 279.464 211.037 279.364 210.977V205.637C279.104 205.787 279.604 205.607 279.364 205.637C278.514 204.857 277.704 204.247 277.044 203.487C275.214 201.397 275.844 199.307 278.484 198.427C279.914 197.947 281.314 198.327 282.694 198.597C285.244 199.097 287.444 200.367 289.524 201.857C292.734 204.167 296.204 205.937 299.994 207.067C302.484 207.807 304.984 208.497 307.604 208.527C309.124 208.547 309.474 208.007 308.904 206.667C305.574 198.777 300.554 192.157 293.874 186.807C291.514 184.917 289.404 182.797 287.844 180.187C286.874 178.567 286.754 178.607 284.904 179.017C283.284 179.387 281.584 179.837 279.964 179.717C276.474 179.457 273.204 178.297 270.314 176.257C268.154 174.737 266.614 172.727 266.134 170.097C265.404 166.117 265.244 162.087 266.194 158.127C268.354 149.077 272.324 140.907 278.424 133.837C280.084 131.907 281.834 130.067 283.534 128.177C284.404 127.217 285.414 126.477 286.634 126.017C287.584 125.657 288.514 125.237 289.474 124.917C293.074 123.707 296.734 123.007 300.564 123.577C305.654 124.327 309.524 126.767 311.704 131.537C312.294 132.817 312.594 134.237 313.024 135.587C313.284 136.387 313.544 137.187 313.844 138.117C314.604 137.757 315.204 137.487 315.784 137.197C319.144 135.517 322.624 134.677 326.394 135.467C327.904 135.787 328.614 135.437 329.384 134.017C330.274 132.367 331.174 130.697 331.944 128.987C333.514 125.487 335.384 122.187 338.034 119.367C338.724 118.627 339.354 117.807 339.924 116.977C340.464 116.197 340.894 115.347 341.484 114.337ZM320.284 104.427V104.337C321.404 104.447 322.534 104.467 323.624 104.677C327.784 105.497 331.984 105.697 336.224 105.677C337.884 105.677 339.554 106.007 341.204 106.247C341.804 106.337 342.364 106.607 342.954 106.777C345.404 107.497 346.114 106.927 346.004 104.337C345.924 102.557 345.134 101.017 344.354 99.4674C339.824 90.4274 335.064 81.4974 331.054 72.1874C329.634 68.8774 328.184 65.5774 326.644 62.3174C325.624 60.1574 324.414 58.0974 323.324 55.9674C322.984 55.2974 322.614 54.5874 322.504 53.8574C322.294 52.3674 321.744 51.0274 321.074 49.7074C318.284 44.2774 315.644 38.7874 313.594 33.0174C313.054 31.4874 312.334 30.0174 311.614 28.5574C309.944 25.1374 308.204 21.7374 306.524 18.3274C305.424 16.0974 304.394 13.8274 303.284 11.5874C302.384 9.76741 301.954 9.60741 299.914 9.72741C298.404 9.81741 296.874 9.79742 295.364 9.74742C293.384 9.68742 291.424 9.70742 289.434 10.0074C286.674 10.4274 283.894 10.6774 281.114 10.8974C277.924 11.1474 274.724 11.2274 271.534 11.4874C267.634 11.7974 263.744 12.2674 259.814 12.1374C259.204 12.1174 258.594 12.1674 257.984 12.2474C251.624 13.0674 245.234 13.5074 238.834 13.6674C235.744 13.7474 232.634 13.7274 229.544 13.5374C228.094 13.4474 226.704 13.4874 225.314 13.8074C223.824 14.1474 223.725 14.3974 224.285 15.7774C225.005 17.5674 225.684 19.3774 226.414 21.1574C226.834 22.1874 227.334 23.1974 227.774 24.2174C228.074 24.9074 228.364 25.6174 228.614 26.3274C229.144 27.8074 229.584 29.3274 230.164 30.7774C231.404 33.8374 232.734 36.8674 233.984 39.9274C235.984 44.8274 238.034 49.6974 240.604 54.3274C242.034 56.9074 243.604 59.4074 244.384 62.2974C244.464 62.5874 244.644 62.8474 244.794 63.1174C246.814 66.8774 248.894 70.6074 250.834 74.4174C252.074 76.8574 253.214 79.3574 254.194 81.9174C254.824 83.5674 255.074 85.3574 255.484 87.0874C256.664 91.9774 258.804 96.5874 259.624 101.587C259.794 102.617 260.234 102.877 261.364 102.937C262.784 103.017 264.214 103.077 265.634 103.057C270.264 102.987 274.884 102.887 279.504 102.787C282.044 102.737 284.584 102.787 287.114 102.577C289.784 102.367 292.384 102.517 294.964 103.267C297.864 104.107 300.834 104.437 303.854 104.407C309.334 104.357 314.824 104.397 320.304 104.397L320.284 104.427ZM211.464 414.027V413.927C212.434 413.927 213.414 414.017 214.364 413.917C218.614 413.467 222.844 412.927 227.094 412.477C230.474 412.117 233.884 411.947 237.264 411.527C242.034 410.947 246.644 409.747 250.904 407.407C252.594 406.477 254.384 405.737 256.104 404.847C258.854 403.427 261.724 402.167 264.294 400.467C268.584 397.637 272.574 394.387 276.334 390.867C277.694 389.587 278.724 388.137 279.534 386.457C281.484 382.437 282.404 378.107 283.444 373.807C284.074 371.207 284.314 368.607 284.034 365.947C283.714 362.887 282.954 360.047 280.544 357.897C280.094 357.497 279.744 356.977 279.354 356.507C278.144 355.027 276.634 354.087 274.724 353.797C273.824 353.667 272.924 353.487 272.024 353.317C268.854 352.727 265.664 352.337 262.474 353.027C253.834 354.887 245.144 356.597 236.594 358.827C230.454 360.427 225.044 363.817 219.774 367.297C216.814 369.257 214.034 371.497 211.184 373.617C209.864 374.597 208.414 374.827 206.854 374.437C203.614 373.637 201.984 371.677 201.664 368.297C201.504 366.577 201.244 364.867 201.084 363.147C201.004 362.287 200.914 361.407 201.034 360.567C201.414 358.027 201.284 355.507 201.104 352.967C200.914 350.337 201.064 347.677 200.344 345.097C200.314 344.997 200.334 344.897 200.334 344.797C200.454 339.537 199.544 334.357 199.004 329.157C198.594 325.207 198.394 321.257 198.624 317.277C198.874 312.967 199.044 308.647 199.204 304.327C199.254 303.147 199.054 302.987 197.794 302.837C196.434 302.667 195.074 302.497 193.704 302.347C191.224 302.077 188.754 301.777 186.274 301.607C184.904 301.507 184.494 301.907 184.494 303.277C184.494 305.767 184.404 308.277 184.674 310.747C185.234 315.967 185.254 321.197 185.154 326.437C185.034 332.837 184.934 339.247 184.814 345.647C184.804 346.207 184.734 346.757 184.664 347.317C184.354 349.747 184.254 352.167 184.584 354.617C184.774 356.017 184.814 357.437 184.864 358.857C184.914 360.277 184.884 361.707 184.914 363.127C184.954 364.957 185.134 366.787 185.034 368.607C184.654 375.577 184.814 382.537 184.934 389.507C184.984 392.807 185.924 395.677 187.784 398.337C188.624 399.547 189.364 400.827 190.194 402.047C190.564 402.587 190.984 403.127 191.494 403.527C195.134 406.307 198.784 409.067 202.454 411.797C203.954 412.907 205.674 413.537 207.524 413.747C208.834 413.887 210.155 413.947 211.475 414.047L211.464 414.027ZM124.534 281.067C123.484 282.077 122.634 282.877 121.814 283.687C118.404 287.037 114.454 289.427 109.764 290.507C107.094 291.117 104.574 290.817 102.454 288.957C99.2445 286.137 96.5145 282.897 94.9645 278.887C92.9845 273.787 90.7145 268.737 90.6745 263.097C90.6745 262.897 90.6145 262.697 90.5945 262.487C90.4945 260.767 90.2345 259.037 90.3145 257.327C90.5945 251.747 89.3645 246.827 84.6345 243.307C83.8145 242.697 82.9945 242.107 82.1945 241.477C81.1945 240.677 80.0845 240.397 78.7945 240.387C73.1845 240.367 67.6345 241.007 62.0745 241.627C60.6545 241.787 59.2745 242.457 57.9045 242.977C56.7145 243.427 55.5845 244.017 54.4145 244.487C51.8245 245.527 49.1545 246.397 46.6345 247.597C42.0445 249.777 37.5245 252.087 33.0145 254.437C30.8145 255.587 29.1245 257.337 27.9145 259.547C27.5545 260.197 27.0345 260.797 26.4845 261.307C22.7545 264.777 19.4145 268.617 16.1745 272.537C14.8345 274.157 13.8045 275.957 13.1445 277.967C12.8445 278.877 12.4645 279.787 11.9845 280.617C10.6245 282.937 10.1645 285.437 10.1945 288.077C10.2245 290.367 11.0945 292.197 12.9745 293.557C15.4045 295.317 17.8045 297.117 20.2245 298.897C21.3945 299.757 22.6845 300.317 24.1345 300.477C25.6545 300.647 27.1645 300.837 28.6845 300.957C30.3045 301.087 31.9345 301.327 33.5345 301.197C36.4645 300.957 39.3845 300.447 42.3045 300.087C46.1045 299.617 49.6045 298.417 52.7645 296.197C56.8345 293.337 59.9945 289.657 62.6445 285.517C64.0945 283.247 65.3945 280.887 66.7945 278.577C67.8845 276.777 69.5245 276.217 71.5045 276.897C72.8345 277.357 73.7345 278.297 74.2745 279.567C75.8745 283.357 77.5045 287.137 79.0045 290.967C80.3845 294.507 82.1845 297.777 84.5645 300.737C88.6745 305.847 93.6745 309.847 99.4245 312.967C100.984 313.817 102.624 314.227 104.394 314.197C105.764 314.177 107.144 314.167 108.504 314.257C110.484 314.387 112.344 314.017 114.104 313.107C115.144 312.567 116.154 311.927 117.254 311.577C119.804 310.767 121.844 309.217 123.784 307.467C124.574 306.757 125.374 306.037 126.164 305.317C128.754 302.947 131.344 300.587 133.914 298.197C135.034 297.147 135.024 296.817 133.824 295.957C132.724 295.167 131.894 294.157 131.244 292.987C129.914 290.587 128.594 288.177 127.244 285.787C126.404 284.287 125.534 282.797 124.534 281.037V281.067ZM464.734 51.3274C465.804 49.9674 466.634 48.8874 467.484 47.8274C470.674 43.8474 475.664 42.7474 480.214 45.0274C481.034 45.4374 481.804 45.9474 482.624 46.3274C484.284 47.0974 485.374 48.3874 486.124 49.9974C487.904 53.8174 488.434 57.7574 487.164 61.8474C486.864 62.8174 486.484 63.7674 486.204 64.7374C485.814 66.0974 484.944 67.0274 483.764 67.7174C482.844 68.2574 481.914 68.7874 481.034 69.3874C479.464 70.4674 477.764 70.9574 475.854 70.7874C475.134 70.7274 474.394 70.8274 473.304 70.8674C473.824 71.5574 474.064 72.0074 474.424 72.3174C476.324 74.0074 478.214 75.7074 480.184 77.3074C482.054 78.8274 484.264 79.5374 486.664 79.6774C487.424 79.7274 488.174 79.8174 488.924 79.9374C493.684 80.6974 497.644 77.9774 498.584 73.2474C498.934 71.5074 499.194 69.7474 499.494 67.9874C499.874 65.7474 499.775 63.5474 499.115 61.3574C498.735 60.0974 498.484 58.7974 498.154 57.5174C497.894 56.5374 497.704 55.5174 497.294 54.5974C495.734 51.1174 494.144 47.6574 492.484 44.2274C491.204 41.5874 489.394 39.3474 487.134 37.4574C484.444 35.2074 481.714 33.0074 479.144 30.6274C476.874 28.5274 474.274 27.3674 471.244 27.0774C470.494 27.0074 469.724 26.8874 468.994 27.0074C466.834 27.3574 465.574 28.8474 464.634 30.6874C463.864 32.1774 463.084 33.6574 462.274 35.1274C461.584 36.3774 461.324 37.6974 461.474 39.0974C461.854 42.6474 462.674 46.1074 463.834 49.4774C464.014 49.9874 464.304 50.4574 464.724 51.2974L464.734 51.3274ZM271.664 160.627C271.594 161.167 271.424 161.657 271.474 162.137C271.724 164.457 272.024 166.777 272.334 169.097C272.484 170.227 273.244 170.877 274.254 171.267C275.674 171.827 277.114 172.327 278.514 172.937C279.704 173.457 280.834 173.437 282.064 173.067C286.914 171.587 291.134 169.007 295.014 165.807C301.794 160.227 306.494 153.367 308.014 144.557C308.634 140.977 308.554 137.467 307.234 134.047C306.044 130.957 303.744 129.227 300.484 128.837C295.684 128.277 291.174 129.257 286.974 131.617C286.324 131.977 285.714 132.497 285.254 133.077C283.654 135.117 282.124 137.217 280.604 139.317C280.264 139.787 280.044 140.347 279.624 141.127C281.034 141.207 282.184 141.327 283.334 141.317C284.894 141.297 286.354 141.657 287.784 142.217C290.724 143.367 292.494 145.527 293.104 148.597C294.274 154.527 292.714 159.677 288.484 163.987C285.524 167.007 281.914 167.847 277.834 167.057C275.934 166.687 274.804 165.517 274.244 163.717C274.054 163.087 273.884 162.447 273.644 161.837C273.344 161.087 272.844 160.537 271.654 160.637L271.664 160.627ZM495.504 37.2574C495.754 36.9674 495.944 36.7974 496.084 36.5874C498.424 33.0174 502.074 31.6874 506.794 32.8774C512.944 34.4374 517.964 40.0674 518.734 46.3574C518.964 48.2774 519.044 50.2174 518.104 52.0274C516.714 54.6974 514.794 56.8774 512.284 58.5674C510.364 59.8574 508.424 60.3674 506.314 59.0574C506.224 59.0074 506.134 58.9274 506.044 58.9274C505.664 58.9474 505.134 58.8674 504.934 59.0774C504.724 59.2974 504.714 59.8374 504.804 60.1974C504.874 60.5074 505.174 60.7974 505.434 61.0074C507.034 62.2474 508.674 63.4574 510.274 64.6974C511.294 65.4874 512.384 66.1674 513.704 66.1974C515.434 66.2374 517.164 66.2574 518.884 66.1574C520.684 66.0474 522.024 65.1674 522.824 63.4674C524.074 60.7874 524.784 58.0574 524.354 55.0574C523.844 51.5374 523.674 47.9674 523.034 44.4774C522.534 41.7474 521.524 39.1074 520.754 36.4174C519.914 33.4774 518.464 30.8974 516.474 28.5874C512.594 24.0674 507.764 21.1774 501.874 20.1374C501.284 20.0374 500.654 19.9974 500.054 20.0274C495.744 20.2274 490.774 24.2674 489.674 29.6374C489.424 30.8474 489.754 31.9774 490.684 32.8474C492.244 34.2974 493.834 35.7274 495.494 37.2474L495.504 37.2574ZM298.834 170.557C298.074 171.087 297.414 171.627 296.674 172.057C295.624 172.677 295.384 173.587 295.664 174.667C296.044 176.197 296.454 177.717 296.934 179.217C297.074 179.667 297.404 180.207 297.794 180.407C299.944 181.517 302.174 182.297 304.664 181.787C307.204 181.257 309.734 180.747 312.284 180.277C314.654 179.837 316.694 178.777 318.444 177.147C319.264 176.387 320.044 175.577 320.774 174.737C325.364 169.457 328.704 163.437 331.254 156.957C332.214 154.527 332.684 151.987 332.604 149.347C332.504 145.947 330.964 143.317 328.344 141.277C327.884 140.917 327.264 140.657 326.684 140.597C323.704 140.257 320.794 140.537 318.074 141.927C316.994 142.477 315.944 143.107 314.864 143.677C314.004 144.147 313.494 144.847 313.314 145.817C313.074 147.117 312.794 148.407 312.564 149.707C312.354 150.827 312.614 151.177 313.744 151.347C314.294 151.427 314.864 151.397 315.414 151.477C317.174 151.737 318.684 152.447 319.284 154.247C320.184 156.977 320.644 159.787 320.174 162.657C319.584 166.257 318.034 169.537 316.594 172.827C315.834 174.557 314.434 175.887 312.704 176.787C311.324 177.507 309.844 177.497 308.384 177.387C304.614 177.097 301.524 175.627 299.714 172.087C299.464 171.597 299.154 171.127 298.814 170.557H298.834Z" fill="#7FEE64"/>
<path d="M528.489 110.741C529.891 111.009 531.484 111.336 533.076 111.633C535.62 112.112 538.174 112.541 540.708 113.07C541.74 113.291 542.773 113.623 543.717 114.085C544.992 114.704 546.198 115.474 547.405 116.224C548.721 117.044 549.81 118.105 550.561 119.468C550.846 119.986 551.071 120.594 551.126 121.174C551.246 122.393 550.483 123.259 549.253 123.259C548.563 123.265 547.832 123.111 547.189 122.846C542.815 121.073 538.247 120.16 533.563 119.769C530.631 119.523 527.697 119.018 524.767 119.062C518.788 119.151 513.525 121.245 509.311 125.59C506.405 128.574 503.631 131.697 500.746 134.701C499.655 135.84 498.433 136.84 497.262 137.9C497.004 138.132 496.706 138.355 496.397 138.517C495.152 139.147 493.927 138.538 493.866 137.158C493.829 136.268 493.93 135.297 494.264 134.475C495.381 131.695 496.377 128.827 497.896 126.264C499.809 123.038 502.356 120.187 505.115 117.654C508.718 114.354 513.153 112.518 517.956 111.728C520.303 111.338 522.703 111.269 525.081 111.059C526.14 110.96 527.21 110.861 528.469 110.741L528.489 110.741Z" fill="#7FEE64"/>
<path d="M258.852 196.743C259.438 197.659 260.089 198.716 260.76 199.751C261.828 201.408 262.936 203.034 263.965 204.722C264.38 205.414 264.722 206.186 264.926 207.006C265.206 208.111 265.346 209.289 265.5 210.453C265.667 211.724 265.547 213.052 265.038 214.425C264.844 214.946 264.557 215.502 264.196 215.949C263.439 216.892 262.437 217.126 261.764 216.492C261.383 216.141 261.087 215.653 260.914 215.13C259.718 211.594 257.835 208.581 255.537 205.885C254.099 204.197 252.835 202.32 251.202 200.842C247.871 197.826 243.58 196.629 238.343 197.599C234.74 198.26 231.115 199.089 227.51 199.774C226.145 200.036 224.802 200.13 223.446 200.293C223.148 200.328 222.835 200.335 222.556 200.293C221.45 200.108 221.191 199.036 222.089 198.007C222.669 197.344 223.379 196.694 224.117 196.271C226.603 194.837 229.084 193.276 231.644 192.206C234.867 190.859 238.184 190.11 241.402 189.7C245.599 189.17 249.265 190.127 252.425 192.03C253.972 192.958 255.331 194.144 256.774 195.217C257.42 195.692 258.071 196.171 258.841 196.733L258.852 196.743Z" fill="#7FEE64"/>
</svg>
